<svg width="262" height="42" viewBox="0 0 262 42" fill="none" xmlns="http://www.w3.org/2000/svg">
<g clip-path="url(#clip0_267_87)">
<path fill-rule="evenodd" clip-rule="evenodd" d="M8.13586 0.5H9.50642H33.0017H34.3722V1.87981V41.3029H31.6311V12.1298H10.877V41.3029H8.13586V1.87981V0.5ZM31.6311 3.25962V9.37019H10.877V3.25962H31.6311ZM20.4708 16.0721V41.3029H23.212V16.0721H20.4708Z" fill="#73B38E"/>
<path d="M54.7454 32.7143L47.5229 8.11434H50.1558L56.3108 29.3758L62.7861 8.11434H65.7036L72.1789 29.3758L78.3339 8.11434H80.9668L73.7443 32.7143H70.7557L64.2449 11.3475L57.734 32.7143H54.7454ZM100.55 15.1429H102.898V32.7143H100.55V29.2703C98.9136 31.8475 96.518 33.1361 93.3633 33.1361C90.8254 33.1361 88.6551 32.2458 86.8525 30.4652C85.0736 28.6846 84.1841 26.5058 84.1841 23.9286C84.1841 21.3515 85.0736 19.1726 86.8525 17.3921C88.6551 15.6115 90.8254 14.7212 93.3633 14.7212C96.518 14.7212 98.9136 16.0098 100.55 18.5869V15.1429ZM88.5602 28.8838C89.9122 30.2192 91.5726 30.8869 93.5412 30.8869C95.5099 30.8869 97.1702 30.2192 98.5222 28.8838C99.8742 27.5249 100.55 25.8732 100.55 23.9286C100.55 21.9841 99.8742 20.3441 98.5222 19.0086C97.1702 17.6498 95.5099 16.9703 93.5412 16.9703C91.5726 16.9703 89.9122 17.6498 88.5602 19.0086C87.2083 20.3441 86.5323 21.9841 86.5323 23.9286C86.5323 25.8732 87.2083 27.5249 88.5602 28.8838ZM119.042 14.7212C121.2 14.7212 122.896 15.3772 124.13 16.6892C125.387 17.9778 126.015 19.7232 126.015 21.9255V32.7143H123.667V21.9255C123.667 20.3558 123.24 19.1375 122.386 18.2706C121.556 17.4038 120.37 16.9703 118.828 16.9703C117.121 16.9703 115.733 17.5092 114.666 18.5869C113.598 19.6412 113.065 21.2812 113.065 23.5069V32.7143H110.716V15.1429H113.065V17.8841C114.393 15.7755 116.385 14.7212 119.042 14.7212ZM148.701 8.11434H151.049V32.7143H148.701V29.2703C147.064 31.8475 144.668 33.1361 141.514 33.1361C138.976 33.1361 136.806 32.2458 135.003 30.4652C133.224 28.6846 132.335 26.5058 132.335 23.9286C132.335 21.3515 133.224 19.1726 135.003 17.3921C136.806 15.6115 138.976 14.7212 141.514 14.7212C144.668 14.7212 147.064 16.0098 148.701 18.5869V8.11434ZM136.711 28.8838C138.063 30.2192 139.723 30.8869 141.692 30.8869C143.66 30.8869 145.321 30.2192 146.673 28.8838C148.025 27.5249 148.701 25.8732 148.701 23.9286C148.701 21.9841 148.025 20.3441 146.673 19.0086C145.321 17.6498 143.66 16.9703 141.692 16.9703C139.723 16.9703 138.063 17.6498 136.711 19.0086C135.359 20.3441 134.683 21.9841 134.683 23.9286C134.683 25.8732 135.359 27.5249 136.711 28.8838ZM167.086 14.7212C169.719 14.7212 171.842 15.6466 173.455 17.4975C175.091 19.3249 175.91 21.4921 175.91 23.9989C175.91 24.2566 175.886 24.6198 175.838 25.0883H160.219C160.457 26.8689 161.216 28.2863 162.496 29.3406C163.801 30.3715 165.402 30.8869 167.299 30.8869C168.651 30.8869 169.814 30.6175 170.786 30.0786C171.782 29.5163 172.53 28.7901 173.028 27.8998L175.091 29.0946C174.308 30.3363 173.241 31.3203 171.889 32.0466C170.537 32.7729 168.995 33.1361 167.264 33.1361C164.465 33.1361 162.188 32.2692 160.433 30.5355C158.678 28.8018 157.8 26.5995 157.8 23.9286C157.8 21.3046 158.666 19.1141 160.397 17.3569C162.129 15.5998 164.358 14.7212 167.086 14.7212ZM167.086 16.9703C165.236 16.9703 163.682 17.5209 162.425 18.6221C161.192 19.6998 160.457 21.1055 160.219 22.8392H173.49C173.253 20.9883 172.53 19.5475 171.32 18.5166C170.11 17.4858 168.699 16.9703 167.086 16.9703ZM184.838 18.0598C185.929 15.9278 187.803 14.8618 190.46 14.8618V17.1109C188.847 17.1109 187.507 17.5795 186.439 18.5166C185.372 19.4538 184.838 20.9298 184.838 22.9446V32.7143H182.49V15.1429H184.838V18.0598ZM196.524 32.7143V7.06006H198.872V32.7143H196.524ZM222.001 15.1429H224.35V32.7143H222.001V29.2703C220.365 31.8475 217.969 33.1361 214.815 33.1361C212.277 33.1361 210.106 32.2458 208.304 30.4652C206.525 28.6846 205.635 26.5058 205.635 23.9286C205.635 21.3515 206.525 19.1726 208.304 17.3921C210.106 15.6115 212.277 14.7212 214.815 14.7212C217.969 14.7212 220.365 16.0098 222.001 18.5869V15.1429ZM210.011 28.8838C211.363 30.2192 213.024 30.8869 214.992 30.8869C216.961 30.8869 218.622 30.2192 219.973 28.8838C221.325 27.5249 222.001 25.8732 222.001 23.9286C222.001 21.9841 221.325 20.3441 219.973 19.0086C218.622 17.6498 216.961 16.9703 214.992 16.9703C213.024 16.9703 211.363 17.6498 210.011 19.0086C208.66 20.3441 207.984 21.9841 207.984 23.9286C207.984 25.8732 208.66 27.5249 210.011 28.8838ZM234.017 19.7466C234.017 20.5432 234.372 21.1758 235.084 21.6443C235.796 22.1129 236.661 22.4761 237.681 22.7338C238.701 22.9915 239.721 23.2843 240.741 23.6123C241.761 23.9169 242.627 24.4441 243.338 25.1938C244.05 25.9201 244.406 26.8806 244.406 28.0755C244.406 29.5749 243.801 30.7932 242.591 31.7303C241.405 32.6675 239.863 33.1361 237.966 33.1361C236.258 33.1361 234.799 32.7612 233.59 32.0115C232.404 31.2618 231.574 30.2895 231.099 29.0946L233.092 27.9349C233.424 28.8486 234.017 29.5749 234.871 30.1138C235.748 30.6292 236.78 30.8869 237.966 30.8869C239.128 30.8869 240.101 30.6643 240.883 30.2192C241.666 29.7506 242.057 29.0361 242.057 28.0755C242.057 27.2789 241.702 26.6463 240.99 26.1778C240.278 25.7092 239.413 25.3461 238.393 25.0883C237.373 24.8306 236.353 24.5495 235.333 24.2449C234.313 23.9169 233.447 23.3898 232.736 22.6635C232.024 21.9138 231.668 20.9415 231.668 19.7466C231.668 18.3175 232.238 17.1226 233.376 16.1621C234.538 15.2015 235.997 14.7212 237.752 14.7212C239.199 14.7212 240.468 15.0492 241.559 15.7052C242.65 16.3378 243.457 17.2046 243.979 18.3058L242.022 19.4303C241.334 17.7903 239.911 16.9703 237.752 16.9703C236.732 16.9703 235.855 17.2163 235.12 17.7083C234.384 18.1769 234.017 18.8563 234.017 19.7466ZM259.903 17.3921H254.78V28.0403C254.78 29.0009 254.969 29.6921 255.349 30.1138C255.728 30.5121 256.298 30.7229 257.057 30.7463C257.816 30.7463 258.764 30.7229 259.903 30.6761V32.7143C257.412 33.0892 255.539 32.9135 254.282 32.1872C253.048 31.4609 252.431 30.0786 252.431 28.0403V17.3921H248.696V15.1429H252.431V10.9258L254.78 10.2229V15.1429H259.903V17.3921Z" fill="#375551"/>
</g>
<defs>
<clipPath id="clip0_267_87">
<rect width="260.909" height="41" fill="white" transform="translate(0.5 0.5)"/>
</clipPath>
</defs>
</svg>
