<svg xmlns="http://www.w3.org/2000/svg" width="1440" height="720" viewBox="0 0 1440 720" fill="none">
  <defs>
    <linearGradient id="heroGradient" x1="0" y1="0" x2="1440" y2="720" gradientUnits="userSpaceOnUse">
      <stop stop-color="#0B3A2E" />
      <stop offset="0.45" stop-color="#1F6B59" />
      <stop offset="1" stop-color="#7BA68E" />
    </linearGradient>
    <linearGradient id="heroGlow" x1="240" y1="120" x2="1200" y2="680" gradientUnits="userSpaceOnUse">
      <stop stop-color="#F5F1E6" stop-opacity="0.28" />
      <stop offset="1" stop-color="#F5F1E6" stop-opacity="0" />
    </linearGradient>
  </defs>
  <rect width="1440" height="720" fill="url(#heroGradient)" />
  <rect width="1440" height="720" fill="url(#heroGlow)" />
  <circle cx="220" cy="180" r="120" fill="#F5F1E6" fill-opacity="0.06" />
  <circle cx="1220" cy="520" r="160" fill="#F5F1E6" fill-opacity="0.08" />
  <path d="M0 520 Q240 440 520 500 T1040 500 T1440 420 V720 H0 Z" fill="#0F2F27" fill-opacity="0.45" />
  <path d="M0 560 Q260 500 560 540 T1080 540 T1440 500 V720 H0 Z" fill="#173E33" fill-opacity="0.45" />
  <path d="M0 600 Q260 560 520 590 T1040 590 T1440 560 V720 H0 Z" fill="#205945" fill-opacity="0.35" />
  <text x="80" y="120" fill="#F5F1E6" fill-opacity="0.6" font-family="'Noto Sans', 'Segoe UI', sans-serif" font-size="20">Wanderlast / Scenic Escape</text>
  <text x="80" y="160" fill="#F5F1E6" fill-opacity="0.85" font-family="'Noto Sans', 'Segoe UI', sans-serif" font-weight="700" font-size="32">Modern journeys, timeless places</text>
</svg>
